# xmcd
#
# Track frame offsets: 
#        150
#        17919
#        32349
#        47676
#        61049
#        74701
#        93349
#        107580
#        125284
#        142620
#        155457
#        173243
#
# Disc length: 2556 seconds
#
# Revision: 0
# Processed by: cddbd v1.5.1PL0 Copyright (c) Steve Scherf et al.
# Submitted via: ExactAudioCopy v0.95a5
#
DISCID=9209fa0c
DTITLE=Bon Bon - Kapod Amit Látsz!
DYEAR=2004
DGENRE=Pop
TTITLE0=Kapod Amit Látsz!
TTITLE1=Álomgyár
TTITLE2=Szeress, Ahogy Rég!
TTITLE3=Maradok Így
TTITLE4=Nekem Ne Magyarázd El!
TTITLE5=Van Amikor A Szívnek Hinned Kell
TTITLE6=Úgy Szeretnék!
TTITLE7=Szavazz Rám!
TTITLE8=Sodor A Szél
TTITLE9=Két Tûz Között
TTITLE10=Kapod, Amit Látsz! (Karaoke)
TTITLE11=Van Amikor A Szívnek Hinned Kell (Karaoke)
EXTD=
EXTT0=
EXTT1=
EXTT2=
EXTT3=
EXTT4=
EXTT5=
EXTT6=
EXTT7=
EXTT8=
EXTT9=
EXTT10=
EXTT11=
PLAYORDER=
